<?xml version="1.0" encoding="utf-8"?>
<!-- Generator: Adobe Illustrator 23.0.3, SVG Export Plug-In . SVG Version: 6.00 Build 0)  -->
<svg version="1.1" id="Ebene_1" xmlns="http://www.w3.org/2000/svg" xmlns:xlink="http://www.w3.org/1999/xlink" x="0px" y="0px"
	 viewBox="0 0 37.76 40" style="enable-background:new 0 0 37.76 40;" xml:space="preserve">
<style type="text/css">
	.st0{fill:#FFFFFF;}
</style>
<g>
	<g>
		<g>
			<path class="st0" d="M16.61,18.12c-1.73,2.31-3.92,3.31-6.68,3.31c-4.55,0-7.89-3.4-7.89-7.65c0-4.28,3.43-7.68,7.92-7.68
				c2.55,0,4.83,1.18,6.19,2.94l-2.79,2.46c-0.79-1.03-1.97-1.76-3.4-1.76c-2.28,0-3.98,1.79-3.98,4.04c0,2.31,1.67,4.01,4.07,4.01
				c1.61,0,2.88-0.97,3.52-1.94L16.61,18.12z"/>
			<path class="st0" d="M26.38,17.79c-2.25,0-3.79-1.79-3.79-4.01c0-2.22,1.54-4.04,3.79-4.04c2.25,0,3.79,1.82,3.79,4.04
				C30.17,16,28.63,17.79,26.38,17.79 M26.9,6.1c-1.61,0-3,0.46-4.16,1.37V0H18.8v21.13h3.79v-1.18c1.21,1.03,2.61,1.49,4.1,1.49
				c2.19,0,4.25-0.97,5.55-2.49c1.15-1.34,1.88-3.16,1.88-5.16C34.13,9.44,30.91,6.1,26.9,6.1"/>
			<path class="st0" d="M18.8,30.02L18.8,30.02c-2.07,0-4.09-0.36-6.01-1.08c-1.85-0.69-3.56-1.69-5.08-2.98l1.91-2.26
				c1.26,1.06,2.68,1.89,4.21,2.47c1.59,0.59,3.26,0.9,4.97,0.9c1.71,0,3.38-0.3,4.97-0.9c1.53-0.57,2.95-1.4,4.21-2.47l1.91,2.26
				c-1.52,1.28-3.23,2.28-5.08,2.98C22.89,29.66,20.86,30.02,18.8,30.02"/>
		</g>
	</g>
	<g>
		<path class="st0" d="M1.21,37.45V40H0v-6.25h2.35c0.8,0,1.28,0.2,1.63,0.56c0.31,0.32,0.49,0.8,0.49,1.3
			c0,0.49-0.18,0.97-0.49,1.29c-0.34,0.36-0.82,0.55-1.63,0.55H1.21z M2.3,36.38c0.41,0,0.62-0.1,0.76-0.25
			c0.13-0.14,0.21-0.32,0.21-0.53c0-0.21-0.07-0.39-0.21-0.54c-0.14-0.15-0.35-0.25-0.76-0.25H1.21v1.56H2.3z"/>
		<path class="st0" d="M3.95,40l2.68-6.25h0.85L10.16,40H8.9l-0.59-1.39H5.8L5.21,40H3.95z M6.25,37.54h1.59l-0.8-1.85L6.25,37.54z"
			/>
		<path class="st0" d="M11.9,37.23V40h-1.21v-6.25h2.28c0.64,0,1.05,0.18,1.37,0.46c0.34,0.32,0.55,0.78,0.55,1.28
			c0,0.5-0.21,0.96-0.55,1.28c-0.17,0.16-0.37,0.29-0.62,0.37L16.05,40h-1.49l-2.23-2.77H11.9z M12.9,36.16
			c0.35,0,0.5-0.07,0.61-0.19c0.11-0.12,0.18-0.29,0.18-0.47c0-0.19-0.07-0.37-0.18-0.48c-0.11-0.12-0.26-0.2-0.61-0.2h-1v1.34H12.9
			z"/>
		<path class="st0" d="M20.18,33.75v1.07h-1.65V40h-1.21v-5.18h-1.65v-1.07H20.18z"/>
		<path class="st0" d="M20.82,33.75h0.85l3.48,4.07v-4.07h1.21V40h-0.85l-3.48-4.07V40h-1.21V33.75z"/>
		<path class="st0" d="M28.84,34.82v1.3h1.92v1.07h-1.92v1.74h2.64V40h-3.84v-6.25h3.75v1.07H28.84z"/>
		<path class="st0" d="M33.6,37.23V40H32.4v-6.25h2.28c0.64,0,1.05,0.18,1.37,0.46c0.34,0.32,0.55,0.78,0.55,1.28
			c0,0.5-0.21,0.96-0.55,1.28c-0.17,0.16-0.37,0.29-0.62,0.37L37.76,40h-1.49l-2.23-2.77H33.6z M34.6,36.16
			c0.35,0,0.5-0.07,0.61-0.19c0.11-0.12,0.18-0.29,0.18-0.47c0-0.19-0.07-0.37-0.18-0.48c-0.11-0.12-0.26-0.2-0.61-0.2h-1v1.34H34.6
			z"/>
	</g>
</g>
</svg>
