<?xml version="1.0" encoding="utf-8"?>
<!-- Generator: Adobe Illustrator 23.0.2, SVG Export Plug-In . SVG Version: 6.00 Build 0)  -->
<svg version="1.1" id="Ebene_1" xmlns="http://www.w3.org/2000/svg" xmlns:xlink="http://www.w3.org/1999/xlink" x="0px" y="0px"
	 viewBox="0 0 502 122.76" style="enable-background:new 0 0 502 122.76;" xml:space="preserve">
<style type="text/css">
	.st0{fill:#FFFFFF;}
</style>
<g>
	<g>
		<path class="st0" d="M59.6,73.89C52.64,83.17,43.85,87.2,32.74,87.2C14.43,87.2,1,73.53,1,56.44c0-17.21,13.8-30.89,31.86-30.89
			c10.26,0,19.41,4.76,24.91,11.84l-11.23,9.89c-3.17-4.15-7.93-7.08-13.67-7.08c-9.16,0-15.99,7.2-15.99,16.24
			c0,9.28,6.71,16.12,16.36,16.12c6.47,0,11.6-3.91,14.16-7.81L59.6,73.89z"/>
		<path class="st0" d="M98.91,72.55c-9.05,0-15.24-7.2-15.24-16.11c0-8.91,6.19-16.24,15.24-16.24c9.05,0,15.24,7.33,15.24,16.24
			C114.16,65.35,107.96,72.55,98.91,72.55 M101,25.55c-6.47,0-12.09,1.83-16.72,5.49V1H68.41v84.98h15.26v-4.76
			c4.88,4.15,10.5,5.98,16.48,5.98c8.79,0,17.09-3.91,22.34-10.01c4.64-5.37,7.57-12.7,7.57-20.75
			C130.06,38.98,117.12,25.55,101,25.55"/>
		<path class="st0" d="M68.41,121.76L68.41,121.76c-8.31,0-16.45-1.46-24.18-4.35c-7.45-2.78-14.33-6.81-20.45-11.98l7.68-9.11
			c5.08,4.28,10.78,7.62,16.94,9.92c6.39,2.39,13.12,3.6,20.01,3.6c6.88,0,13.61-1.21,20.01-3.6c6.16-2.3,11.86-5.64,16.94-9.92
			l7.68,9.11c-6.12,5.16-13,9.19-20.45,11.98C84.85,120.3,76.72,121.76,68.41,121.76"/>
		<path class="st0" d="M188.55,54.17c-4.12,5.49-9.32,7.88-15.9,7.88c-10.84,0-18.79-8.1-18.79-18.22
			c0-10.19,8.17-18.29,18.87-18.29c6.07,0,11.49,2.82,14.75,7.01l-6.65,5.85c-1.88-2.46-4.7-4.19-8.1-4.19
			c-5.42,0-9.47,4.26-9.47,9.61c0,5.49,3.98,9.54,9.69,9.54c3.83,0,6.87-2.31,8.39-4.63L188.55,54.17z"/>
		<path class="st0" d="M209.32,53.38c-5.36,0-9.03-4.26-9.03-9.54c0-5.28,3.67-9.61,9.03-9.61c5.36,0,9.03,4.34,9.03,9.61
			C218.35,49.11,214.68,53.38,209.32,53.38 M218.35,26.27v2.82c-2.75-2.24-6.29-3.54-10.26-3.54c-9.54,0-17.2,7.95-17.2,18.29
			c0,4.77,1.74,9.11,4.48,12.29c3.11,3.61,8.02,5.93,13.23,5.93c3.54,0,6.87-1.08,9.76-3.54v2.82h9.03V26.27H218.35z"/>
		<path class="st0" d="M237.53,50.63c2.39,2.17,6.07,3.47,9.61,3.47c2.53,0,4.48-1.23,4.48-2.96c0-5.28-16.99-3.4-16.99-14.67
			c0-6.72,6.51-10.92,13.44-10.92c4.55,0,9.54,1.74,11.85,3.54l-4.41,6.8c-1.81-1.3-4.19-2.39-6.72-2.39c-2.6,0-4.77,1.01-4.77,2.82
			c0,4.55,16.99,2.75,16.99,14.89c0,6.72-6.58,10.84-13.95,10.84c-4.84,0-9.97-1.66-14.09-4.7L237.53,50.63z"/>
		<path class="st0" d="M276.45,61.33h-9.4V11.01h9.4V28.8c2.6-2.02,5.93-3.25,9.54-3.25c4.84,0,9.25,2.17,12.14,5.64
			c2.31,2.75,3.61,6.29,3.61,12.29v17.85h-9.4V42.75c0-3.47-0.79-5.28-2.1-6.58c-1.23-1.23-3.11-1.95-5.28-1.95
			c-3.98,0-7.23,2.53-8.53,4.34V61.33z"/>
		<path class="st0" d="M326.66,53.38c-5.36,0-9.03-4.26-9.03-9.54c0-5.28,3.67-9.61,9.03-9.61s9.03,4.34,9.03,9.61
			C335.69,49.11,332.02,53.38,326.66,53.38 M327.9,25.55c-3.83,0-7.16,1.08-9.9,3.25V11.01h-9.4v50.32h9.04v-2.82
			c2.89,2.46,6.22,3.54,9.76,3.54c5.2,0,10.12-2.31,13.23-5.93c2.75-3.18,4.48-7.52,4.48-12.29C345.1,33.5,337.44,25.55,327.9,25.55
			"/>
		<path class="st0" d="M367.44,53.38c-5.36,0-9.03-4.26-9.03-9.54c0-5.28,3.67-9.61,9.03-9.61c5.36,0,9.03,4.34,9.03,9.61
			C376.46,49.11,372.8,53.38,367.44,53.38 M376.46,26.27v2.82c-2.75-2.24-6.29-3.54-10.26-3.54c-9.54,0-17.2,7.95-17.2,18.29
			c0,4.77,1.74,9.11,4.48,12.29c3.11,3.61,8.02,5.93,13.23,5.93c3.54,0,6.87-1.08,9.76-3.54v2.82h9.03V26.27H376.46z"/>
		<path class="st0" d="M425.58,54.17c-4.12,5.49-9.32,7.88-15.9,7.88c-10.84,0-18.79-8.1-18.79-18.22
			c0-10.19,8.17-18.29,18.87-18.29c6.07,0,11.49,2.82,14.75,7.01l-6.65,5.85c-1.88-2.46-4.7-4.19-8.1-4.19
			c-5.42,0-9.47,4.26-9.47,9.61c0,5.49,3.98,9.54,9.69,9.54c3.83,0,6.87-2.31,8.39-4.63L425.58,54.17z"/>
		<polygon class="st0" points="448.15,42.03 467.45,61.33 454.8,61.33 439.99,46.15 439.99,61.33 430.59,61.33 430.59,11.01 
			439.99,11.01 439.99,37.62 452.06,26.27 465.29,26.27 		"/>
		<polygon class="st0" points="173.3,121.04 166.79,121.04 152.05,85.98 161.52,85.98 170.05,106.44 178.87,85.98 185.37,85.98 
			194.12,106.44 202.72,85.98 212.19,85.98 197.44,121.04 190.94,121.04 182.12,100.66 		"/>
		<path class="st0" d="M230.77,113.09c5.49,0,9.25-4.26,9.25-9.54c0-5.28-3.76-9.61-9.25-9.61c-5.49,0-9.25,4.34-9.25,9.61
			C221.52,108.82,225.28,113.09,230.77,113.09 M230.77,85.26c10.63,0,18.65,8.17,18.65,18.29c0,10.12-8.02,18.21-18.65,18.21
			c-10.63,0-18.65-8.1-18.65-18.21C212.12,93.43,220.15,85.26,230.77,85.26"/>
		<path class="st0" d="M277.04,94.29c-0.65-0.22-2.02-0.36-3.4-0.36c-4.12,0-7.37,2.96-8.53,5.06v22.05h-9.4V85.98h9.04v3.54
			c2.1-2.6,5.93-4.27,10.19-4.27c1.37,0,2.17,0.15,3.18,0.29L277.04,94.29z"/>
		<rect x="282.96" y="70.72" class="st0" width="9.4" height="50.31"/>
		<path class="st0" d="M316.41,113.09c-5.36,0-9.03-4.26-9.03-9.54c0-5.28,3.67-9.61,9.03-9.61c5.36,0,9.03,4.34,9.03,9.61
			C325.43,108.82,321.77,113.09,316.41,113.09 M325.07,70.72v17.79c-2.75-2.17-6.07-3.25-9.9-3.25c-9.54,0-17.2,7.95-17.2,18.29
			c0,4.77,1.73,9.11,4.48,12.29c3.11,3.61,8.02,5.93,13.23,5.93c3.54,0,6.87-1.08,9.76-3.54v2.82h9.03V70.72H325.07z"/>
	</g>
	<g>
		<path class="st0" d="M353.98,110.8v10.24h-4.85V95.88h9.45c3.23,0,5.14,0.79,6.54,2.26c1.26,1.29,1.98,3.23,1.98,5.21
			c0,1.98-0.72,3.92-1.98,5.21c-1.37,1.44-3.31,2.23-6.54,2.23H353.98z M358.36,106.48c1.65,0,2.48-0.4,3.06-1.01
			c0.54-0.57,0.83-1.29,0.83-2.12c0-0.83-0.29-1.58-0.83-2.16c-0.58-0.61-1.4-1.01-3.06-1.01h-4.38v6.29H358.36z"/>
		<path class="st0" d="M365,121.04l10.78-25.16h3.41l10.78,25.16h-5.07l-2.37-5.57h-10.1l-2.37,5.57H365z M374.27,111.16h6.4
			l-3.2-7.44L374.27,111.16z"/>
		<path class="st0" d="M396.98,109.9v11.14h-4.85V95.88h9.16c2.59,0,4.24,0.72,5.5,1.87c1.37,1.29,2.23,3.13,2.23,5.14
			s-0.86,3.85-2.23,5.14c-0.68,0.65-1.51,1.15-2.51,1.47l9.41,11.54h-6l-8.95-11.14H396.98z M401.01,105.59
			c1.4,0,2.01-0.29,2.44-0.75c0.43-0.47,0.72-1.19,0.72-1.91c0-0.75-0.29-1.47-0.72-1.94c-0.43-0.47-1.04-0.79-2.44-0.79h-4.02v5.39
			H401.01z"/>
		<path class="st0" d="M430.31,95.88v4.31h-6.65v20.84h-4.85v-20.84h-6.65v-4.31H430.31z"/>
		<path class="st0" d="M432.89,95.88h3.42l14.02,16.39V95.88h4.85v25.16h-3.41l-14.02-16.39v16.39h-4.85V95.88z"/>
		<path class="st0" d="M465.13,100.19v5.21h7.73v4.31h-7.73v7.01h10.6v4.31h-15.45V95.88h15.09v4.31H465.13z"/>
		<path class="st0" d="M484.29,109.9v11.14h-4.85V95.88h9.16c2.59,0,4.24,0.72,5.5,1.87c1.37,1.29,2.23,3.13,2.23,5.14
			s-0.86,3.85-2.23,5.14c-0.68,0.65-1.51,1.15-2.51,1.47l9.41,11.54h-6l-8.95-11.14H484.29z M488.31,105.59
			c1.4,0,2.01-0.29,2.44-0.75c0.43-0.47,0.72-1.19,0.72-1.91c0-0.75-0.29-1.47-0.72-1.94c-0.43-0.47-1.04-0.79-2.44-0.79h-4.02v5.39
			H488.31z"/>
	</g>
</g>
</svg>
