<?xml version="1.0" encoding="utf-8"?>
<!-- Generator: Adobe Illustrator 23.0.2, SVG Export Plug-In . SVG Version: 6.00 Build 0)  -->
<svg version="1.1" id="Ebene_1" xmlns="http://www.w3.org/2000/svg" xmlns:xlink="http://www.w3.org/1999/xlink" x="0px" y="0px"
	 viewBox="0 0 502 131.45" style="enable-background:new 0 0 502 131.45;" xml:space="preserve">
<style type="text/css">
	.st0{fill:#FFFFFF;}
</style>
<g>
	<g>
		<path class="st0" d="M63.82,79.14C56.36,89.09,46.93,93.4,35.02,93.4C15.4,93.4,1,78.75,1,60.43c0-18.45,14.79-33.11,34.16-33.11
			c10.99,0,20.81,5.1,26.7,12.7l-12.04,10.6c-3.4-4.45-8.5-7.59-14.66-7.59c-9.82,0-17.14,7.72-17.14,17.4
			c0,9.95,7.2,17.28,17.53,17.28c6.94,0,12.43-4.19,15.18-8.38L63.82,79.14z"/>
		<path class="st0" d="M105.95,77.7c-9.7,0-16.34-7.72-16.34-17.27c0-9.55,6.64-17.4,16.34-17.4c9.7,0,16.34,7.85,16.34,17.4
			C122.29,69.98,115.65,77.7,105.95,77.7 M108.19,27.32c-6.94,0-12.95,1.96-17.93,5.89V1H73.25V92.1h16.36v-5.1
			c5.23,4.45,11.25,6.41,17.66,6.41c9.42,0,18.32-4.19,23.95-10.73c4.97-5.76,8.11-13.61,8.11-22.25
			C139.34,41.71,125.47,27.32,108.19,27.32"/>
		<path class="st0" d="M73.25,130.45L73.25,130.45c-8.91,0-17.63-1.57-25.92-4.67c-7.98-2.98-15.36-7.3-21.92-12.84l8.23-9.76
			c5.44,4.59,11.55,8.17,18.16,10.64c6.85,2.56,14.07,3.86,21.44,3.86c7.38,0,14.59-1.3,21.44-3.86
			c6.61-2.47,12.72-6.05,18.16-10.64l8.23,9.76c-6.56,5.53-13.94,9.85-21.92,12.84C90.88,128.88,82.16,130.45,73.25,130.45"/>
		<path class="st0" d="M202.04,58c-4.42,5.89-9.99,8.45-17.05,8.45c-11.62,0-20.14-8.68-20.14-19.53c0-10.92,8.76-19.6,20.22-19.6
			c6.51,0,12.32,3.02,15.81,7.52l-7.13,6.28c-2.01-2.63-5.04-4.49-8.68-4.49c-5.81,0-10.15,4.57-10.15,10.3
			c0,5.89,4.26,10.23,10.38,10.23c4.11,0,7.36-2.48,8.99-4.96L202.04,58z"/>
		<path class="st0" d="M224.31,57.15c-5.74,0-9.67-4.57-9.67-10.23c0-5.65,3.93-10.3,9.67-10.3c5.74,0,9.67,4.65,9.67,10.3
			C233.98,52.57,230.05,57.15,224.31,57.15 M233.98,28.09v3.02c-2.94-2.4-6.74-3.8-11-3.8c-10.23,0-18.44,8.52-18.44,19.6
			c0,5.11,1.86,9.76,4.8,13.17c3.33,3.87,8.6,6.35,14.18,6.35c3.8,0,7.36-1.16,10.46-3.8v3.02h9.68V28.09H233.98z"/>
		<path class="st0" d="M254.54,54.2c2.56,2.32,6.51,3.72,10.3,3.72c2.71,0,4.8-1.32,4.8-3.18c0-5.65-18.21-3.64-18.21-15.73
			c0-7.21,6.97-11.7,14.41-11.7c4.88,0,10.23,1.86,12.71,3.8l-4.73,7.28c-1.94-1.4-4.49-2.56-7.2-2.56c-2.79,0-5.11,1.09-5.11,3.02
			c0,4.88,18.21,2.94,18.21,15.96c0,7.2-7.05,11.62-14.95,11.62c-5.19,0-10.69-1.78-15.11-5.04L254.54,54.2z"/>
		<path class="st0" d="M296.26,65.67h-10.07V11.73h10.07V30.8c2.79-2.17,6.35-3.49,10.23-3.49c5.19,0,9.92,2.32,13.02,6.04
			c2.48,2.94,3.87,6.74,3.87,13.17v19.14h-10.07V45.76c0-3.72-0.85-5.65-2.25-7.05c-1.32-1.32-3.33-2.09-5.66-2.09
			c-4.26,0-7.75,2.71-9.14,4.65V65.67z"/>
		<path class="st0" d="M350.08,57.15c-5.74,0-9.67-4.57-9.67-10.23c0-5.65,3.93-10.3,9.67-10.3c5.74,0,9.67,4.65,9.67,10.3
			C359.76,52.57,355.83,57.15,350.08,57.15 M351.41,27.32c-4.11,0-7.67,1.16-10.61,3.49V11.74h-10.07v53.93h9.69v-3.02
			c3.1,2.63,6.66,3.8,10.46,3.8c5.58,0,10.85-2.48,14.18-6.35c2.94-3.41,4.8-8.06,4.8-13.17C369.85,35.84,361.64,27.32,351.41,27.32
			"/>
		<path class="st0" d="M393.79,57.15c-5.74,0-9.67-4.57-9.67-10.23c0-5.65,3.93-10.3,9.67-10.3c5.74,0,9.67,4.65,9.67,10.3
			C403.46,52.57,399.53,57.15,393.79,57.15 M403.46,28.09v3.02c-2.94-2.4-6.74-3.8-11-3.8c-10.23,0-18.44,8.52-18.44,19.6
			c0,5.11,1.86,9.76,4.8,13.17c3.33,3.87,8.6,6.35,14.18,6.35c3.8,0,7.36-1.16,10.46-3.8v3.02h9.68V28.09H403.46z"/>
		<path class="st0" d="M456.11,58c-4.42,5.89-9.99,8.45-17.05,8.45c-11.62,0-20.14-8.68-20.14-19.53c0-10.92,8.76-19.6,20.22-19.6
			c6.51,0,12.32,3.02,15.81,7.52l-7.13,6.28c-2.01-2.63-5.04-4.49-8.68-4.49c-5.81,0-10.15,4.57-10.15,10.3
			c0,5.89,4.26,10.23,10.38,10.23c4.11,0,7.36-2.48,8.99-4.96L456.11,58z"/>
		<polygon class="st0" points="480.31,44.98 501,65.67 487.44,65.67 471.56,49.4 471.56,65.67 461.49,65.67 461.49,11.73 
			471.56,11.73 471.56,40.26 484.5,28.09 498.68,28.09 		"/>
		<polygon class="st0" points="185.69,129.67 178.72,129.67 162.91,92.1 173.06,92.1 182.21,114.02 191.66,92.1 198.63,92.1 
			208.01,114.02 217.23,92.1 227.37,92.1 211.57,129.67 204.6,129.67 195.15,107.83 		"/>
		<path class="st0" d="M247.3,121.15c5.89,0,9.92-4.57,9.92-10.23c0-5.66-4.03-10.3-9.92-10.3c-5.89,0-9.92,4.65-9.92,10.3
			C237.38,116.58,241.41,121.15,247.3,121.15 M247.3,91.32c11.39,0,19.99,8.76,19.99,19.6c0,10.85-8.6,19.52-19.99,19.52
			c-11.39,0-19.99-8.68-19.99-19.52C227.31,100.08,235.91,91.32,247.3,91.32"/>
		<path class="st0" d="M296.89,101.01c-0.7-0.23-2.17-0.39-3.64-0.39c-4.41,0-7.9,3.18-9.14,5.42v23.63h-10.07V92.1h9.69v3.8
			c2.25-2.79,6.35-4.57,10.93-4.57c1.47,0,2.32,0.16,3.41,0.31L296.89,101.01z"/>
		<rect x="303.23" y="75.74" class="st0" width="10.07" height="53.93"/>
		<path class="st0" d="M339.09,121.15c-5.74,0-9.67-4.57-9.67-10.23c0-5.65,3.93-10.3,9.67-10.3c5.74,0,9.68,4.65,9.68,10.3
			C348.77,116.58,344.83,121.15,339.09,121.15 M348.38,75.74v19.07c-2.94-2.32-6.51-3.49-10.61-3.49c-10.23,0-18.44,8.52-18.44,19.6
			c0,5.11,1.86,9.76,4.8,13.17c3.33,3.87,8.6,6.35,14.18,6.35c3.8,0,7.36-1.16,10.46-3.8v3.02h9.68V75.74H348.38z"/>
	</g>
	<g>
		<path class="st0" d="M379.37,117.73v11.94h-5.2v-26.97h9.82c2.78,0,4.55,0.77,5.89,2c1.46,1.39,2.39,3.35,2.39,5.51
			c0,2.16-0.93,4.12-2.39,5.51c-0.73,0.69-1.62,1.23-2.69,1.58l10.09,12.37h-6.43l-9.6-11.94H379.37z M383.68,113.11
			c1.5,0,2.16-0.31,2.62-0.81c0.46-0.5,0.77-1.27,0.77-2.04c0-0.81-0.31-1.58-0.77-2.08c-0.46-0.5-1.12-0.85-2.62-0.85h-4.31v5.78
			H383.68z"/>
		<path class="st0" d="M404.59,107.33v5.59h8.28v4.62h-8.28v7.51h11.36v4.62h-16.57v-26.97h16.18v4.62H404.59z"/>
		<path class="st0" d="M437.21,102.71v4.62h-7.13v22.34h-5.2v-22.34h-7.13v-4.62H437.21z"/>
		<path class="st0" d="M434.85,129.67l11.56-26.97h3.66l11.56,26.97h-5.43l-2.54-5.97h-10.82l-2.54,5.97H434.85z M444.79,119.08
			h6.86l-3.43-7.98L444.79,119.08z"/>
		<path class="st0" d="M463.93,102.71h5.2v26.97h-5.2V102.71z"/>
		<path class="st0" d="M474.51,102.71h5.2v22.34h11.36v4.62h-16.57V102.71z"/>
	</g>
</g>
</svg>
