<?xml version="1.0" encoding="utf-8"?>
<!-- Generator: Adobe Illustrator 23.0.2, SVG Export Plug-In . SVG Version: 6.00 Build 0)  -->
<svg version="1.1" id="Ebene_1" xmlns="http://www.w3.org/2000/svg" xmlns:xlink="http://www.w3.org/1999/xlink" x="0px" y="0px"
	 viewBox="0 0 502 107.97" style="enable-background:new 0 0 502 107.97;" xml:space="preserve">
<style type="text/css">
	.st0{fill:#FFFFFF;}
</style>
<g>
	<g>
		<path class="st0" d="M52.42,64.97c-6.11,8.14-13.82,11.68-23.57,11.68c-16.07,0-27.85-12-27.85-27c0-15.1,12.11-27.1,27.96-27.1
			c9,0,17.03,4.18,21.85,10.39l-9.86,8.68c-2.78-3.64-6.96-6.21-12-6.21c-8.04,0-14.03,6.32-14.03,14.25
			c0,8.14,5.89,14.14,14.35,14.14c5.68,0,10.18-3.43,12.43-6.86L52.42,64.97z"/>
		<path class="st0" d="M86.92,63.79c-7.94,0-13.38-6.32-13.38-14.14c0-7.82,5.43-14.25,13.38-14.25c7.94,0,13.38,6.43,13.38,14.25
			C100.3,57.47,94.86,63.79,86.92,63.79 M88.75,22.54c-5.68,0-10.6,1.61-14.68,4.82V1H60.15v74.57h13.39V71.4
			c4.29,3.64,9.21,5.25,14.46,5.25c7.71,0,15-3.43,19.61-8.78c4.07-4.71,6.64-11.14,6.64-18.21
			C114.25,34.33,102.9,22.54,88.75,22.54"/>
		<path class="st0" d="M60.15,106.97L60.15,106.97c-7.3,0-14.43-1.29-21.22-3.82c-6.53-2.44-12.57-5.98-17.95-10.51l6.74-7.99
			c4.45,3.76,9.46,6.69,14.87,8.71c5.61,2.1,11.51,3.16,17.55,3.16c6.04,0,11.95-1.06,17.55-3.16c5.41-2.02,10.41-4.95,14.87-8.71
			l6.74,7.99c-5.37,4.53-11.41,8.07-17.94,10.51C74.58,105.69,67.44,106.97,60.15,106.97"/>
		<path class="st0" d="M165.58,47.66c-3.62,4.82-8.18,6.91-13.95,6.91c-9.51,0-16.49-7.1-16.49-15.98c0-8.94,7.17-16.05,16.55-16.05
			c5.33,0,10.09,2.47,12.94,6.15l-5.84,5.14c-1.65-2.16-4.12-3.68-7.1-3.68c-4.76,0-8.31,3.74-8.31,8.43c0,4.82,3.49,8.37,8.5,8.37
			c3.36,0,6.03-2.03,7.36-4.06L165.58,47.66z"/>
		<path class="st0" d="M183.81,46.96c-4.7,0-7.92-3.74-7.92-8.37c0-4.63,3.22-8.43,7.92-8.43c4.7,0,7.92,3.81,7.92,8.43
			C191.73,43.22,188.51,46.96,183.81,46.96 M191.73,23.18v2.47c-2.41-1.97-5.52-3.11-9.01-3.11c-8.37,0-15.1,6.98-15.1,16.05
			c0,4.19,1.52,7.99,3.93,10.78c2.73,3.17,7.04,5.2,11.61,5.2c3.11,0,6.03-0.95,8.56-3.11v2.47h7.93V23.18H191.73z"/>
		<path class="st0" d="M208.56,44.55c2.09,1.9,5.33,3.05,8.44,3.05c2.22,0,3.93-1.08,3.93-2.6c0-4.63-14.91-2.98-14.91-12.87
			c0-5.9,5.71-9.58,11.8-9.58c4,0,8.37,1.52,10.4,3.11l-3.87,5.96c-1.59-1.14-3.68-2.09-5.9-2.09c-2.28,0-4.19,0.89-4.19,2.47
			c0,4,14.91,2.41,14.91,13.07c0,5.9-5.77,9.51-12.24,9.51c-4.25,0-8.75-1.46-12.37-4.12L208.56,44.55z"/>
		<path class="st0" d="M242.72,53.94h-8.25V9.79h8.25V25.4c2.28-1.78,5.2-2.85,8.37-2.85c4.25,0,8.12,1.9,10.66,4.95
			c2.03,2.41,3.17,5.52,3.17,10.78v15.67h-8.25v-16.3c0-3.04-0.7-4.63-1.84-5.77c-1.08-1.08-2.73-1.71-4.63-1.71
			c-3.49,0-6.34,2.22-7.48,3.81V53.94z"/>
		<path class="st0" d="M286.78,46.96c-4.7,0-7.92-3.74-7.92-8.37c0-4.63,3.22-8.43,7.92-8.43s7.92,3.81,7.92,8.43
			C294.7,43.22,291.48,46.96,286.78,46.96 M287.86,22.54c-3.36,0-6.28,0.95-8.69,2.85V9.79h-8.25v44.15h7.93v-2.47
			c2.54,2.16,5.45,3.11,8.56,3.11c4.57,0,8.88-2.03,11.61-5.2c2.41-2.79,3.93-6.6,3.93-10.78
			C302.96,29.52,296.23,22.54,287.86,22.54"/>
		<path class="st0" d="M322.56,46.96c-4.7,0-7.92-3.74-7.92-8.37c0-4.63,3.22-8.43,7.92-8.43c4.7,0,7.92,3.81,7.92,8.43
			C330.48,43.22,327.26,46.96,322.56,46.96 M330.48,23.18v2.47c-2.41-1.97-5.52-3.11-9.01-3.11c-8.37,0-15.1,6.98-15.1,16.05
			c0,4.19,1.52,7.99,3.93,10.78c2.73,3.17,7.04,5.2,11.61,5.2c3.11,0,6.03-0.95,8.56-3.11v2.47h7.93V23.18H330.48z"/>
		<path class="st0" d="M373.58,47.66c-3.62,4.82-8.18,6.91-13.95,6.91c-9.51,0-16.49-7.1-16.49-15.98c0-8.94,7.17-16.05,16.55-16.05
			c5.33,0,10.09,2.47,12.94,6.15l-5.84,5.14c-1.65-2.16-4.12-3.68-7.1-3.68c-4.76,0-8.31,3.74-8.31,8.43c0,4.82,3.49,8.37,8.5,8.37
			c3.36,0,6.03-2.03,7.36-4.06L373.58,47.66z"/>
		<polygon class="st0" points="393.39,37 410.32,53.94 399.22,53.94 386.22,40.62 386.22,53.94 377.97,53.94 377.97,9.79 
			386.22,9.79 386.22,33.14 396.81,23.18 408.42,23.18 		"/>
		<polygon class="st0" points="152.2,106.34 146.49,106.34 133.55,75.57 141.86,75.57 149.34,93.53 157.08,75.57 162.79,75.57 
			170.47,93.53 178.01,75.57 186.32,75.57 173.38,106.34 167.67,106.34 159.94,88.45 		"/>
		<path class="st0" d="M202.63,99.36c4.82,0,8.12-3.74,8.12-8.37c0-4.63-3.3-8.44-8.12-8.44c-4.82,0-8.12,3.81-8.12,8.44
			C194.51,95.62,197.81,99.36,202.63,99.36 M202.63,74.94c9.32,0,16.36,7.17,16.36,16.05c0,8.88-7.04,15.98-16.36,15.98
			c-9.32,0-16.36-7.1-16.36-15.98C186.27,82.11,193.31,74.94,202.63,74.94"/>
		<path class="st0" d="M243.23,82.87c-0.57-0.19-1.78-0.32-2.98-0.32c-3.61,0-6.47,2.6-7.48,4.44v19.35h-8.25V75.57h7.93v3.11
			c1.84-2.28,5.2-3.74,8.94-3.74c1.21,0,1.9,0.13,2.79,0.25L243.23,82.87z"/>
		<rect x="248.42" y="62.18" class="st0" width="8.25" height="44.15"/>
		<path class="st0" d="M277.78,99.36c-4.7,0-7.92-3.74-7.92-8.37c0-4.63,3.22-8.43,7.92-8.43c4.7,0,7.92,3.81,7.92,8.43
			C285.7,95.62,282.48,99.36,277.78,99.36 M285.38,62.18v15.61c-2.41-1.9-5.33-2.85-8.69-2.85c-8.37,0-15.1,6.98-15.1,16.05
			c0,4.19,1.52,7.99,3.93,10.78c2.73,3.17,7.04,5.2,11.61,5.2c3.11,0,6.02-0.95,8.56-3.11v2.47h7.93V62.18H285.38z"/>
	</g>
	<g>
		<path class="st0" d="M306.49,84.26h4.29l4.57,13.78l4.86-13.78h3l4.86,13.78l4.57-13.78h4.29l-7.32,22.08h-3l-4.92-13.97
			l-4.89,13.97h-3L306.49,84.26z"/>
		<path class="st0" d="M354.3,96.4h-11.04v9.94H339V84.26h4.26v8.36h11.04v-8.36h4.26v22.08h-4.26V96.4z"/>
		<path class="st0" d="M363.03,84.26h4.26v22.08h-4.26V84.26z"/>
		<path class="st0" d="M385.44,84.26v3.79h-5.83v18.29h-4.26V88.05h-5.83v-3.79H385.44z"/>
		<path class="st0" d="M391.96,88.05v4.57h6.78v3.78h-6.78v6.15h9.3v3.79H387.7V84.26h13.25v3.79H391.96z"/>
		<path class="st0" d="M412.94,84.26h4.26v18.29h9.3v3.79h-13.56V84.26z"/>
		<path class="st0" d="M427.51,106.34l9.46-22.08h2.99l9.46,22.08h-4.45l-2.08-4.89h-8.86l-2.08,4.89H427.51z M435.64,97.67h5.61
			l-2.81-6.53L435.64,97.67z"/>
		<path class="st0" d="M458.82,84.26c2.49,0,3.88,0.6,4.95,1.55c1.23,1.07,2.05,2.65,2.05,4.45c0,1.45-0.69,2.93-1.42,3.69
			c1.96,0.98,3.31,3.19,3.31,5.65c0,1.86-0.79,3.56-2.02,4.76c-1.23,1.23-2.93,1.99-5.77,1.99h-8.61V84.26H458.82z M455.57,92.78
			h2.99c1.33,0,1.93-0.32,2.37-0.79c0.38-0.41,0.63-0.98,0.63-1.58s-0.25-1.17-0.63-1.58c-0.44-0.47-1.04-0.79-2.37-0.79h-2.99
			V92.78z M459.83,102.55c1.48,0,2.3-0.38,2.84-0.98c0.51-0.54,0.79-1.23,0.79-2.02c0-0.79-0.28-1.48-0.79-2.02
			c-0.54-0.6-1.36-0.98-2.84-0.98h-4.26v5.99H459.83z"/>
		<path class="st0" d="M474.88,88.05v4.57h6.78v3.78h-6.78v6.15h9.3v3.79h-13.56V84.26h13.25v3.79H474.88z"/>
		<path class="st0" d="M487.44,84.26h4.26v18.29h9.3v3.79h-13.56V84.26z"/>
	</g>
</g>
</svg>
