<?xml version="1.0" encoding="utf-8"?>
<!-- Generator: Adobe Illustrator 23.0.2, SVG Export Plug-In . SVG Version: 6.00 Build 0)  -->
<svg version="1.1" id="Ebene_1" xmlns="http://www.w3.org/2000/svg" xmlns:xlink="http://www.w3.org/1999/xlink" x="0px" y="0px"
	 viewBox="0 0 502 114.19" style="enable-background:new 0 0 502 114.19;" xml:space="preserve">
<style type="text/css">
	.st0{fill:#FFFFFF;}
</style>
<g>
	<g>
		<path class="st0" d="M55.44,68.72c-6.47,8.62-14.63,12.36-24.95,12.36C13.48,81.08,1,68.38,1,52.5c0-15.99,12.82-28.69,29.6-28.69
			c9.53,0,18.03,4.42,23.14,11L43.3,44c-2.95-3.86-7.37-6.58-12.7-6.58c-8.51,0-14.86,6.69-14.86,15.08
			c0,8.62,6.24,14.97,15.2,14.97c6.01,0,10.77-3.63,13.16-7.26L55.44,68.72z"/>
		<path class="st0" d="M91.96,67.47c-8.41,0-14.16-6.69-14.16-14.97c0-8.28,5.75-15.08,14.16-15.08c8.41,0,14.16,6.81,14.16,15.08
			C106.12,60.78,100.37,67.47,91.96,67.47 M93.9,23.81c-6.01,0-11.23,1.7-15.54,5.1V1H63.62v78.95H77.8v-4.42
			c4.54,3.86,9.75,5.56,15.31,5.56c8.17,0,15.88-3.63,20.76-9.3c4.31-4.99,7.03-11.79,7.03-19.28
			C120.9,36.28,108.87,23.81,93.9,23.81"/>
		<path class="st0" d="M63.62,113.19L63.62,113.19c-7.72,0-15.28-1.36-22.46-4.05c-6.92-2.59-13.31-6.33-19-11.13l7.13-8.46
			c4.72,3.98,10.01,7.08,15.74,9.22c5.94,2.22,12.19,3.34,18.58,3.34c6.39,0,12.65-1.12,18.58-3.34c5.73-2.14,11.02-5.24,15.74-9.22
			l7.13,8.46c-5.69,4.8-12.08,8.54-19,11.13C78.9,111.83,71.34,113.19,63.62,113.19"/>
		<path class="st0" d="M175.23,50.4c-3.83,5.1-8.66,7.32-14.77,7.32C150.39,57.72,143,50.2,143,40.8c0-9.47,7.59-16.99,17.53-16.99
			c5.64,0,10.68,2.62,13.7,6.51l-6.18,5.44c-1.75-2.28-4.36-3.89-7.52-3.89c-5.04,0-8.8,3.96-8.8,8.93c0,5.1,3.69,8.86,9,8.86
			c3.56,0,6.38-2.15,7.79-4.3L175.23,50.4z"/>
		<path class="st0" d="M194.53,49.66c-4.98,0-8.38-3.96-8.38-8.86c0-4.9,3.41-8.93,8.38-8.93c4.98,0,8.38,4.03,8.38,8.93
			C202.92,45.7,199.51,49.66,194.53,49.66 M202.92,24.48v2.62c-2.55-2.08-5.84-3.29-9.54-3.29c-8.86,0-15.98,7.39-15.98,16.99
			c0,4.43,1.61,8.46,4.16,11.42c2.89,3.36,7.45,5.51,12.29,5.51c3.29,0,6.38-1.01,9.07-3.29v2.62h8.39V24.48H202.92z"/>
		<path class="st0" d="M220.73,47.11c2.22,2.01,5.64,3.22,8.93,3.22c2.35,0,4.16-1.14,4.16-2.75c0-4.9-15.78-3.16-15.78-13.63
			c0-6.24,6.04-10.14,12.49-10.14c4.23,0,8.86,1.61,11.01,3.29l-4.1,6.31c-1.68-1.21-3.89-2.22-6.24-2.22
			c-2.42,0-4.43,0.94-4.43,2.62c0,4.23,15.78,2.55,15.78,13.83c0,6.24-6.11,10.07-12.96,10.07c-4.5,0-9.27-1.54-13.09-4.36
			L220.73,47.11z"/>
		<path class="st0" d="M256.9,57.05h-8.73V10.3h8.73v16.53c2.42-1.88,5.51-3.02,8.86-3.02c4.5,0,8.6,2.01,11.28,5.24
			c2.15,2.55,3.36,5.84,3.36,11.42v16.59h-8.73V39.79c0-3.22-0.74-4.9-1.95-6.11c-1.14-1.14-2.89-1.81-4.9-1.81
			c-3.69,0-6.71,2.35-7.92,4.03V57.05z"/>
		<path class="st0" d="M303.54,49.66c-4.98,0-8.38-3.96-8.38-8.86c0-4.9,3.41-8.93,8.38-8.93s8.38,4.03,8.38,8.93
			C311.92,45.7,308.52,49.66,303.54,49.66 M304.69,23.81c-3.56,0-6.65,1.01-9.2,3.02V10.3h-8.73v46.74h8.39v-2.62
			c2.69,2.28,5.77,3.29,9.06,3.29c4.83,0,9.4-2.15,12.29-5.51c2.55-2.95,4.16-6.98,4.16-11.42
			C320.67,31.19,313.55,23.81,304.69,23.81"/>
		<path class="st0" d="M341.42,49.66c-4.98,0-8.38-3.96-8.38-8.86c0-4.9,3.41-8.93,8.38-8.93c4.98,0,8.38,4.03,8.38,8.93
			C349.8,45.7,346.4,49.66,341.42,49.66 M349.8,24.48v2.62c-2.55-2.08-5.84-3.29-9.54-3.29c-8.86,0-15.98,7.39-15.98,16.99
			c0,4.43,1.61,8.46,4.16,11.42c2.89,3.36,7.45,5.51,12.29,5.51c3.29,0,6.38-1.01,9.07-3.29v2.62h8.39V24.48H349.8z"/>
		<path class="st0" d="M395.43,50.4c-3.83,5.1-8.66,7.32-14.77,7.32c-10.07,0-17.46-7.52-17.46-16.92c0-9.47,7.59-16.99,17.53-16.99
			c5.64,0,10.68,2.62,13.7,6.51l-6.18,5.44c-1.75-2.28-4.36-3.89-7.52-3.89c-5.04,0-8.8,3.96-8.8,8.93c0,5.1,3.69,8.86,9,8.86
			c3.56,0,6.38-2.15,7.79-4.3L395.43,50.4z"/>
		<polygon class="st0" points="416.41,39.12 434.34,57.05 422.58,57.05 408.82,42.95 408.82,57.05 400.09,57.05 400.09,10.3 
			408.82,10.3 408.82,35.02 420.03,24.48 432.32,24.48 		"/>
		<polygon class="st0" points="161.07,112.52 155.02,112.52 141.33,79.95 150.12,79.95 158.05,98.95 166.24,79.95 172.28,79.95 
			180.41,98.95 188.4,79.95 197.19,79.95 183.5,112.52 177.45,112.52 169.26,93.58 		"/>
		<path class="st0" d="M214.46,105.13c5.1,0,8.6-3.96,8.6-8.86c0-4.9-3.49-8.93-8.6-8.93c-5.1,0-8.6,4.03-8.6,8.93
			C205.86,101.17,209.36,105.13,214.46,105.13 M214.46,79.28c9.87,0,17.32,7.59,17.32,16.99c0,9.4-7.45,16.92-17.32,16.92
			c-9.87,0-17.32-7.52-17.32-16.92C197.14,86.87,204.59,79.28,214.46,79.28"/>
		<path class="st0" d="M257.44,87.67c-0.6-0.2-1.88-0.34-3.16-0.34c-3.83,0-6.85,2.75-7.92,4.7v20.48h-8.73V79.95h8.39v3.29
			c1.95-2.42,5.51-3.96,9.47-3.96c1.28,0,2.01,0.14,2.95,0.27L257.44,87.67z"/>
		<rect x="262.94" y="65.78" class="st0" width="8.73" height="46.74"/>
		<path class="st0" d="M294.01,105.13c-4.98,0-8.38-3.96-8.38-8.86c0-4.9,3.41-8.93,8.38-8.93c4.98,0,8.39,4.03,8.39,8.93
			C302.4,101.17,298.99,105.13,294.01,105.13 M302.06,65.78V82.3c-2.55-2.01-5.64-3.02-9.2-3.02c-8.86,0-15.98,7.39-15.98,16.99
			c0,4.43,1.61,8.46,4.16,11.42c2.89,3.36,7.45,5.51,12.29,5.51c3.29,0,6.38-1.01,9.06-3.29v2.62h8.39V65.78H302.06z"/>
	</g>
	<g>
		<path class="st0" d="M328.79,93.37v4.71h6.98v3.89h-6.98v6.33h9.58v3.9h-13.96V89.47h13.63v3.9H328.79z"/>
		<path class="st0" d="M341.72,89.47h3.08l12.66,14.8v-14.8h4.38v22.72h-3.08l-12.66-14.8v14.8h-4.38V89.47z"/>
		<path class="st0" d="M380.59,89.47v3.9h-6v18.83h-4.38V93.37h-6v-3.9H380.59z"/>
		<path class="st0" d="M387.3,93.37v4.71h6.98v3.89h-6.98v6.33h9.58v3.9h-13.96V89.47h13.63v3.9H387.3z"/>
		<path class="st0" d="M404.61,102.13v10.06h-4.38V89.47h8.28c2.34,0,3.83,0.65,4.97,1.69c1.23,1.17,2.01,2.82,2.01,4.64
			s-0.78,3.47-2.01,4.64c-0.62,0.58-1.36,1.04-2.27,1.33l8.5,10.42h-5.42l-8.08-10.06H404.61z M408.24,98.24
			c1.27,0,1.82-0.26,2.21-0.68c0.39-0.42,0.65-1.07,0.65-1.72c0-0.68-0.26-1.33-0.65-1.75c-0.39-0.42-0.94-0.71-2.21-0.71h-3.64
			v4.87H408.24z"/>
		<path class="st0" d="M425.86,102.94v9.25h-4.38V89.47h8.54c2.92,0,4.64,0.71,5.91,2.05c1.14,1.17,1.78,2.92,1.78,4.71
			c0,1.78-0.65,3.54-1.78,4.7c-1.23,1.3-2.99,2.01-5.91,2.01H425.86z M429.82,99.05c1.49,0,2.24-0.36,2.76-0.91
			c0.49-0.52,0.75-1.17,0.75-1.91c0-0.75-0.26-1.43-0.75-1.95c-0.52-0.55-1.27-0.91-2.76-0.91h-3.96v5.68H429.82z"/>
		<path class="st0" d="M444.36,102.13v10.06h-4.38V89.47h8.27c2.34,0,3.83,0.65,4.97,1.69c1.23,1.17,2.01,2.82,2.01,4.64
			s-0.78,3.47-2.01,4.64c-0.62,0.58-1.36,1.04-2.27,1.33l8.5,10.42h-5.42l-8.08-10.06H444.36z M447.99,98.24
			c1.27,0,1.82-0.26,2.21-0.68c0.39-0.42,0.65-1.07,0.65-1.72c0-0.68-0.26-1.33-0.65-1.75c-0.39-0.42-0.94-0.71-2.21-0.71h-3.63
			v4.87H447.99z"/>
		<path class="st0" d="M461.23,89.47h4.38v22.72h-4.38V89.47z"/>
		<path class="st0" d="M470.86,106.12c1.3,1.43,3.28,2.5,5.35,2.5c1.95,0,3.31-1.2,3.31-2.86c0-2.92-4.22-3.28-7.27-5.06
			c-1.79-1.04-3.21-2.6-3.21-5.16c0-4.06,3.73-6.4,7.5-6.4c2.3,0,4.45,0.55,6.59,2.14l-2.27,3.25c-0.91-0.84-2.43-1.49-3.93-1.49
			c-1.65,0-3.5,0.71-3.5,2.47c0,3.67,10.48,2.53,10.48,10.19c0,4.03-3.6,6.82-7.69,6.82c-3.05,0-5.88-1.27-8.21-3.41L470.86,106.12z
			"/>
		<path class="st0" d="M491.42,93.37v4.71h6.98v3.89h-6.98v6.33H501v3.9h-13.96V89.47h13.63v3.9H491.42z"/>
	</g>
</g>
</svg>
