<?xml version="1.0" encoding="utf-8"?>
<!-- Generator: Adobe Illustrator 23.0.2, SVG Export Plug-In . SVG Version: 6.00 Build 0)  -->
<svg version="1.1" id="Ebene_1" xmlns="http://www.w3.org/2000/svg" xmlns:xlink="http://www.w3.org/1999/xlink" x="0px" y="0px"
	 viewBox="0 0 502 107.71" style="enable-background:new 0 0 502 107.71;" xml:space="preserve">
<style type="text/css">
	.st0{fill:#FFFFFF;}
</style>
<g>
	<g>
		<path class="st0" d="M52.29,64.81c-6.09,8.12-13.78,11.65-23.51,11.65C12.76,76.46,1,64.49,1,49.53
			c0-15.07,12.08-27.04,27.89-27.04c8.98,0,16.99,4.17,21.8,10.37l-9.83,8.65c-2.78-3.63-6.94-6.2-11.97-6.2
			c-8.01,0-14,6.3-14,14.21c0,8.12,5.88,14.11,14.32,14.11c5.66,0,10.15-3.42,12.4-6.84L52.29,64.81z"/>
		<path class="st0" d="M86.7,63.63c-7.92,0-13.34-6.3-13.34-14.11c0-7.8,5.42-14.21,13.34-14.21c7.92,0,13.34,6.41,13.34,14.21
			C100.05,57.33,94.62,63.63,86.7,63.63 M88.53,22.49c-5.66,0-10.58,1.6-14.64,4.81V1H60v74.39h13.36v-4.17
			c4.27,3.63,9.19,5.24,14.42,5.24c7.69,0,14.96-3.42,19.56-8.76c4.06-4.7,6.62-11.11,6.62-18.17
			C113.97,34.25,102.64,22.49,88.53,22.49"/>
		<path class="st0" d="M60,106.71L60,106.71c-7.28,0-14.4-1.28-21.16-3.81c-6.52-2.44-12.54-5.96-17.9-10.48l6.72-7.97
			c4.44,3.75,9.43,6.67,14.83,8.69c5.59,2.09,11.49,3.15,17.51,3.15c6.03,0,11.92-1.06,17.51-3.15c5.4-2.02,10.38-4.94,14.83-8.69
			l6.72,7.97c-5.36,4.52-11.38,8.05-17.9,10.48C74.4,105.43,67.28,106.71,60,106.71"/>
		<path class="st0" d="M165.17,47.55c-3.61,4.81-8.16,6.9-13.92,6.9c-9.49,0-16.45-7.09-16.45-15.94c0-8.92,7.15-16.01,16.51-16.01
			c5.32,0,10.06,2.47,12.91,6.14l-5.82,5.12c-1.64-2.15-4.11-3.67-7.09-3.67c-4.75,0-8.29,3.73-8.29,8.41
			c0,4.81,3.48,8.35,8.48,8.35c3.35,0,6.01-2.02,7.34-4.05L165.17,47.55z"/>
		<path class="st0" d="M183.35,46.85c-4.69,0-7.9-3.73-7.9-8.35c0-4.62,3.21-8.41,7.9-8.41c4.69,0,7.9,3.8,7.9,8.41
			C191.25,43.12,188.04,46.85,183.35,46.85 M191.25,23.13v2.47c-2.4-1.96-5.5-3.1-8.98-3.1c-8.35,0-15.06,6.96-15.06,16.01
			c0,4.18,1.52,7.97,3.92,10.76c2.72,3.16,7.02,5.19,11.58,5.19c3.1,0,6.01-0.95,8.54-3.1v2.47h7.91V23.13H191.25z"/>
		<path class="st0" d="M208.03,44.45c2.09,1.9,5.32,3.04,8.41,3.04c2.21,0,3.92-1.08,3.92-2.59c0-4.62-14.87-2.97-14.87-12.84
			c0-5.88,5.69-9.55,11.77-9.55c3.99,0,8.35,1.52,10.38,3.1l-3.86,5.95c-1.58-1.14-3.67-2.09-5.88-2.09c-2.28,0-4.18,0.89-4.18,2.47
			c0,3.99,14.87,2.4,14.87,13.03c0,5.88-5.76,9.49-12.21,9.49c-4.24,0-8.73-1.45-12.34-4.11L208.03,44.45z"/>
		<path class="st0" d="M242.11,53.81h-8.22V9.77h8.22v15.57c2.28-1.77,5.19-2.85,8.35-2.85c4.24,0,8.1,1.9,10.63,4.94
			c2.02,2.4,3.16,5.5,3.16,10.76v15.63h-8.23V37.55c0-3.04-0.7-4.62-1.83-5.76c-1.08-1.07-2.72-1.71-4.62-1.71
			c-3.48,0-6.33,2.21-7.47,3.8V53.81z"/>
		<path class="st0" d="M286.06,46.85c-4.69,0-7.9-3.73-7.9-8.35c0-4.62,3.21-8.41,7.9-8.41c4.69,0,7.9,3.8,7.9,8.41
			C293.96,43.12,290.75,46.85,286.06,46.85 M287.14,22.49c-3.35,0-6.26,0.95-8.67,2.85V9.77h-8.22v44.04h7.91v-2.47
			c2.53,2.15,5.44,3.1,8.54,3.1c4.56,0,8.86-2.02,11.58-5.19c2.4-2.78,3.92-6.58,3.92-10.76C302.2,29.45,295.49,22.49,287.14,22.49"
			/>
		<path class="st0" d="M321.75,46.85c-4.69,0-7.9-3.73-7.9-8.35c0-4.62,3.21-8.41,7.9-8.41c4.69,0,7.9,3.8,7.9,8.41
			C329.65,43.12,326.44,46.85,321.75,46.85 M329.65,23.13v2.47c-2.4-1.96-5.5-3.1-8.98-3.1c-8.35,0-15.06,6.96-15.06,16.01
			c0,4.18,1.52,7.97,3.92,10.76c2.72,3.16,7.02,5.19,11.58,5.19c3.1,0,6.01-0.95,8.54-3.1v2.47h7.91V23.13H329.65z"/>
		<path class="st0" d="M372.64,47.55c-3.61,4.81-8.16,6.9-13.92,6.9c-9.49,0-16.45-7.09-16.45-15.94c0-8.92,7.15-16.01,16.51-16.01
			c5.32,0,10.06,2.47,12.91,6.14l-5.82,5.12c-1.64-2.15-4.11-3.67-7.09-3.67c-4.75,0-8.29,3.73-8.29,8.41
			c0,4.81,3.48,8.35,8.48,8.35c3.35,0,6.01-2.02,7.34-4.05L372.64,47.55z"/>
		<polygon class="st0" points="392.4,36.92 409.29,53.81 398.22,53.81 385.25,40.52 385.25,53.81 377.03,53.81 377.03,9.77 
			385.25,9.77 385.25,33.06 395.82,23.13 407.39,23.13 		"/>
		<polygon class="st0" points="151.82,106.07 146.12,106.07 133.22,75.39 141.5,75.39 148.97,93.3 156.69,75.39 162.38,75.39 
			170.04,93.3 177.57,75.39 185.85,75.39 172.95,106.07 167.25,106.07 159.54,88.23 		"/>
		<path class="st0" d="M202.12,99.12c4.81,0,8.1-3.73,8.1-8.35c0-4.62-3.29-8.41-8.1-8.41c-4.81,0-8.1,3.8-8.1,8.41
			C194.03,95.38,197.32,99.12,202.12,99.12 M202.12,74.76c9.3,0,16.32,7.15,16.32,16.01c0,8.86-7.02,15.94-16.32,15.94
			c-9.3,0-16.32-7.09-16.32-15.94C185.8,81.91,192.82,74.76,202.12,74.76"/>
		<path class="st0" d="M242.62,82.67c-0.57-0.19-1.77-0.32-2.97-0.32c-3.61,0-6.45,2.59-7.47,4.43v19.3h-8.22V75.39h7.91v3.1
			c1.83-2.28,5.19-3.73,8.92-3.73c1.2,0,1.9,0.13,2.78,0.25L242.62,82.67z"/>
		<rect x="247.8" y="62.03" class="st0" width="8.22" height="44.04"/>
		<path class="st0" d="M277.08,99.11c-4.69,0-7.9-3.73-7.9-8.35c0-4.62,3.21-8.41,7.9-8.41c4.69,0,7.9,3.8,7.9,8.41
			C284.98,95.38,281.77,99.11,277.08,99.11 M284.66,62.03V77.6c-2.4-1.9-5.31-2.85-8.67-2.85c-8.35,0-15.06,6.96-15.06,16.01
			c0,4.18,1.52,7.97,3.92,10.76c2.72,3.16,7.02,5.19,11.58,5.19c3.1,0,6.01-0.95,8.54-3.1v2.47h7.91V62.03H284.66z"/>
	</g>
	<g>
		<path class="st0" d="M309.85,88.03v4.43h6.58v3.67h-6.58v5.96h9.02v3.67h-13.15V84.36h12.84v3.67H309.85z"/>
		<path class="st0" d="M330.74,92.62v3.36h-10.09v-3.36H330.74z"/>
		<path class="st0" d="M338.02,95.07c0,4.16,3.18,7.34,7.31,7.34c2.78,0,4.8-1.34,6.06-2.97l2.84,2.54c-1.9,2.42-5.08,4.1-8.99,4.1
			c-6.67,0-11.35-4.86-11.35-11.01c0-6.15,4.62-11.01,11.28-11.01c3.18,0,5.9,1.19,7.83,3.06l-2.66,2.81
			c-1.28-1.28-3.09-2.2-5.2-2.2C341.08,87.73,338.02,91,338.02,95.07z"/>
		<path class="st0" d="M365.8,84.05c6.61,0,11.16,4.93,11.16,11.01c0,6.09-4.56,11.01-11.16,11.01c-6.6,0-11.16-4.92-11.16-11.01
			C354.64,88.98,359.19,84.05,365.8,84.05z M365.8,102.4c4.04,0,7.03-3.3,7.03-7.34c0-4.04-3-7.34-7.03-7.34
			c-4.04,0-7.03,3.3-7.03,7.34C358.77,99.1,361.76,102.4,365.8,102.4z"/>
		<path class="st0" d="M390.65,97.18l7.8-12.81h2.91v21.41h-4.13V93.84l-5.14,8.41h-2.87l-5.14-8.41v11.93h-4.13V84.36h2.9
			L390.65,97.18z"/>
		<path class="st0" d="M416.42,97.18l7.8-12.81h2.91v21.41h-4.13V93.84l-5.14,8.41h-2.88l-5.14-8.41v11.93h-4.13V84.36h2.91
			L416.42,97.18z"/>
		<path class="st0" d="M435.61,88.03v4.43h6.57v3.67h-6.57v5.96h9.02v3.67h-13.15V84.36h12.84v3.67H435.61z"/>
		<path class="st0" d="M451.92,96.29v9.48h-4.13V84.36h7.8c2.2,0,3.61,0.61,4.68,1.59c1.16,1.1,1.9,2.66,1.9,4.37
			s-0.73,3.27-1.9,4.37c-0.58,0.55-1.28,0.98-2.14,1.26l8.01,9.82h-5.11l-7.61-9.48H451.92z M455.34,92.62
			c1.19,0,1.71-0.24,2.08-0.64c0.37-0.4,0.61-1.01,0.61-1.62c0-0.64-0.24-1.25-0.61-1.65c-0.37-0.4-0.89-0.67-2.08-0.67h-3.43v4.59
			H455.34z"/>
		<path class="st0" d="M469.5,95.07c0,4.16,3.18,7.34,7.31,7.34c2.78,0,4.8-1.34,6.06-2.97l2.84,2.54c-1.9,2.42-5.08,4.1-8.99,4.1
			c-6.67,0-11.35-4.86-11.35-11.01c0-6.15,4.62-11.01,11.28-11.01c3.18,0,5.9,1.19,7.83,3.06l-2.66,2.81
			c-1.28-1.28-3.09-2.2-5.2-2.2C472.56,87.73,469.5,91,469.5,95.07z"/>
		<path class="st0" d="M491.98,88.03v4.43h6.57v3.67h-6.57v5.96H501v3.67h-13.15V84.36h12.84v3.67H491.98z"/>
	</g>
</g>
</svg>
