<?xml version="1.0" encoding="utf-8"?>
<!-- Generator: Adobe Illustrator 21.0.2, SVG Export Plug-In . SVG Version: 6.00 Build 0)  -->
<!DOCTYPE svg PUBLIC "-//W3C//DTD SVG 1.1//EN" "http://www.w3.org/Graphics/SVG/1.1/DTD/svg11.dtd">
<svg version="1.1" id="Ebene_1" xmlns="http://www.w3.org/2000/svg" xmlns:xlink="http://www.w3.org/1999/xlink" x="0px" y="0px"
	 viewBox="0 0 425.2 141.7" style="enable-background:new 0 0 425.2 141.7;" xml:space="preserve"
	>
<style type="text/css">
	.st0{fill:#005551;}
</style>
<g>
	<path class="st0" d="M174.6,65.2c-3.5,4.7-7.9,6.7-13.5,6.7c-9.2,0-15.9-6.9-15.9-15.4c0-8.6,6.9-15.5,16-15.5
		c5.1,0,9.7,2.4,12.5,5.9l-5.6,5c-1.6-2.1-4-3.6-6.9-3.6c-4.6,0-8,3.6-8,8.1c0,4.7,3.4,8.1,8.2,8.1c3.2,0,5.8-2,7.1-3.9L174.6,65.2z
		"/>
	<path class="st0" d="M216.2,62.2c2,1.8,5.1,2.9,8.1,2.9c2.1,0,3.8-1,3.8-2.5c0-4.5-14.4-2.9-14.4-12.4c0-5.7,5.5-9.3,11.4-9.3
		c3.9,0,8.1,1.5,10,3l-3.7,5.8c-1.5-1.1-3.6-2-5.7-2c-2.2,0-4,0.9-4,2.4c0,3.9,14.4,2.3,14.4,12.6c0,5.7-5.6,9.2-11.8,9.2
		c-4.1,0-8.5-1.4-11.9-4L216.2,62.2z"/>
	<path class="st0" d="M250,71.3h-8V27.8h8v15.9c2.2-1.7,5-2.8,8.1-2.8c4.1,0,7.8,1.8,10.3,4.8c2,2.3,3.1,5.3,3.1,10.4v15.1h-8V55.5
		c0-2.9-0.7-4.5-1.8-5.6c-1-1-2.6-1.7-4.5-1.7c-3.4,0-6.1,2.1-7.2,3.7V71.3z"/>
	<path class="st0" d="M378.4,65.2c-3.5,4.7-7.9,6.7-13.5,6.7c-9.2,0-15.9-6.9-15.9-15.4c0-8.6,6.9-15.5,16-15.5
		c5.1,0,9.7,2.4,12.5,5.9l-5.6,5c-1.6-2.1-4-3.6-6.9-3.6c-4.6,0-8,3.6-8,8.1c0,4.7,3.4,8.1,8.2,8.1c3.2,0,5.8-2,7.1-3.9L378.4,65.2z
		"/>
	<polygon class="st0" points="397.5,54.9 413.9,71.3 403.1,71.3 390.6,58.4 390.6,71.3 382.6,71.3 382.6,27.8 390.6,27.8 
		390.6,51.2 400.8,41.6 412,41.6 	"/>
	<polygon class="st0" points="162.2,123.3 156.7,123.3 144.2,93.6 152.3,93.6 159.5,110.9 167,93.6 172.5,93.6 179.9,110.9 
		187.2,93.6 195.2,93.6 182.7,123.3 177.2,123.3 169.7,106 	"/>
	<path class="st0" d="M211.2,116.6c4.7,0,7.8-3.6,7.8-8.1c0-4.5-3.2-8.1-7.8-8.1c-4.7,0-7.8,3.7-7.8,8.1
		C203.4,113,206.6,116.6,211.2,116.6 M211.2,93c9,0,15.8,6.9,15.8,15.5c0,8.6-6.8,15.4-15.8,15.4c-9,0-15.8-6.9-15.8-15.4
		C195.4,99.9,202.2,93,211.2,93"/>
	<path class="st0" d="M250.4,100.6c-0.6-0.2-1.7-0.3-2.9-0.3c-3.5,0-6.3,2.5-7.2,4.3v18.7h-8V93.6h7.7v3c1.8-2.2,5-3.6,8.6-3.6
		c1.2,0,1.8,0.1,2.7,0.2L250.4,100.6z"/>
	<rect x="255.4" y="79.8" class="st0" width="8" height="43.5"/>
	<path class="st0" d="M105.9,103.1l5.9,8.4c-11.3,7.9-25.3,12.4-40.1,12.4c-14.8,0-28.7-4.4-40.1-12.4l5.9-8.4
		c9.5,6.6,21.7,10.4,34.1,10.4C84.3,113.5,96.4,109.7,105.9,103.1"/>
	<path class="st0" d="M336,41.6V44c-2.3-1.9-5.3-3-8.7-3c-8.1,0-14.6,6.7-14.6,15.5c0,4,1.5,7.7,3.8,10.4c2.6,3.1,6.8,5,11.2,5
		c3,0,5.8-0.9,8.3-3v2.4h7.7V41.6H336z M328.1,64.4c-4.7,0-7.9-3.5-7.9-7.9c0-4.4,3.2-8,7.9-8c4.7,0,7.9,3.6,7.9,8
		C336.1,60.8,332.9,64.4,328.1,64.4z"/>
	<path class="st0" d="M294.8,41c-3.4,0-6.4,1.1-8.7,3V27.8h-7.7v43.5h7.7v-2.4c2.5,2.1,5.3,3,8.3,3c4.4,0,8.6-2,11.2-5
		c2.3-2.7,3.8-6.4,3.8-10.4C309.4,47.7,302.9,41,294.8,41z M293.9,64.4c-4.7,0-7.9-3.5-7.9-7.9c0-4.4,3.2-8,7.9-8
		c4.7,0,7.9,3.6,7.9,8C301.8,60.8,298.6,64.4,293.9,64.4z"/>
	<path class="st0" d="M199.9,41.5v2.4c-2.3-1.9-5.3-3-8.7-3c-8.1,0-14.6,6.7-14.6,15.5c0,4,1.5,7.7,3.8,10.4c2.6,3.1,6.8,5,11.2,5
		c3,0,5.8-0.9,8.3-3v2.4h7.7V41.5H199.9z M192.1,64.3c-4.7,0-7.9-3.5-7.9-7.9c0-4.4,3.2-8,7.9-8c4.7,0,7.9,3.6,7.9,8
		C200,60.7,196.8,64.3,192.1,64.3z"/>
	<path class="st0" d="M292,79.8V96c-2.3-1.9-5.3-3-8.7-3c-8.1,0-14.6,6.7-14.6,15.5c0,4,1.5,7.7,3.8,10.4c2.6,3.1,6.8,5,11.2,5
		c3,0,5.8-0.9,8.3-3v2.4h7.7V79.8H292z M284.2,116.4c-4.7,0-7.9-3.5-7.9-7.9c0-4.4,3.2-8,7.9-8c4.7,0,7.9,3.6,7.9,8
		C292.1,112.9,288.9,116.4,284.2,116.4z"/>
	<path class="st0" d="M63.1,83.7c-6.1,8.2-13.9,11.8-23.7,11.8c-16.2,0-28-12.1-28-27.2C11.3,53.1,23.5,41,39.5,41
		c9.1,0,17.1,4.2,22,10.5l-9.9,8.7c-2.8-3.7-7-6.3-12.1-6.3c-8.1,0-14.1,6.4-14.1,14.3c0,8.2,5.9,14.2,14.4,14.2
		c5.7,0,10.2-3.4,12.5-6.9L63.1,83.7z"/>
	<path class="st0" d="M99.1,82.2c-8.3,0-14-6.2-14-13.9c0-7.7,5.7-14,14-14c8.3,0,14,6.3,14,14C113,76,107.3,82.2,99.1,82.2
		 M100.6,41c-5.9,0-11.2,1.9-15.3,5.3V17.8H71.8v76.6h13.5v-4.2c4.3,3.7,9.3,5.3,14.6,5.3c7.8,0,15.1-3.5,19.7-8.8
		c4.1-4.7,6.7-11.2,6.7-18.3C126.3,52.9,114.9,41,100.6,41"/>
</g>
</svg>
